{
    "asset" : {
        "generator" : "Khronos glTF Blender I/O v1.5.17",
        "version" : "2.0"
    },
    "scene" : 0,
    "scenes" : [
        {
            "name" : "Scene",
            "nodes" : [
                0,
                1,
                2
            ]
        }
    ],
    "nodes" : [
        {
            "mesh" : 0,
            "name" : "Cube.001",
            "scale" : [
                99.99024963378906,
                99.99024963378906,
                99.99024963378906
            ]
        },
        {
            "name" : "Light",
            "rotation" : [
                0.16907575726509094,
                0.7558803558349609,
                -0.27217137813568115,
                0.570947527885437
            ],
            "translation" : [
                4.076245307922363,
                5.903861999511719,
                -1.0054539442062378
            ]
        },
        {
            "name" : "Camera",
            "rotation" : [
                0.483536034822464,
                0.33687159419059753,
                -0.20870360732078552,
                0.7804827094078064
            ],
            "translation" : [
                7.358891487121582,
                4.958309173583984,
                6.925790786743164
            ]
        }
    ],
    "meshes" : [
        {
            "name" : "Cube.003",
            "primitives" : [
                {
                    "attributes" : {
                        "POSITION" : 0,
                        "NORMAL" : 1,
                        "TEXCOORD_0" : 2
                    },
                    "indices" : 3
                }
            ]
        }
    ],
    "accessors" : [
        {
            "bufferView" : 0,
            "componentType" : 5126,
            "count" : 68,
            "max" : [
                0.6803059577941895,
                0.9468463659286499,
                0.5229898691177368
            ],
            "min" : [
                -0.746390700340271,
                -0.8188271522521973,
                -0.4854997396469116
            ],
            "type" : "VEC3"
        },
        {
            "bufferView" : 1,
            "componentType" : 5126,
            "count" : 68,
            "type" : "VEC3"
        },
        {
            "bufferView" : 2,
            "componentType" : 5126,
            "count" : 68,
            "type" : "VEC2"
        },
        {
            "bufferView" : 3,
            "componentType" : 5123,
            "count" : 84,
            "type" : "SCALAR"
        }
    ],
    "bufferViews" : [
        {
            "buffer" : 0,
            "byteLength" : 816,
            "byteOffset" : 0
        },
        {
            "buffer" : 0,
            "byteLength" : 816,
            "byteOffset" : 816
        },
        {
            "buffer" : 0,
            "byteLength" : 544,
            "byteOffset" : 1632
        },
        {
            "buffer" : 0,
            "byteLength" : 168,
            "byteOffset" : 2176
        }
    ],
    "buffers" : [
        {
            "byteLength" : 2344,
            "uri" : "shard-stigma-b.bin"
        }
    ]
}
