{"accessors" : [{"bufferView" : 0, "byteOffset" : 0, "componentType" : 5123, "count" : 66, "type" : "SCALAR", "max" : [47], "min" : [0]}, {"bufferView" : 1, "byteOffset" : 0, "componentType" : 5126, "count" : 48, "type" : "VEC3", "max" : [1, 1.0713261365890503, 1], "min" : [-1, -1.1301605701446533, -1], "name" : "POSITION"}, {"bufferView" : 1, "byteOffset" : 12, "componentType" : 5126, "count" : 48, "type" : "VEC3", "max" : [0.8742920756340027, 1.0000044107437134, 0.8742920756340027], "min" : [-0.8742920756340027, -0.8656357526779175, -0.8742920756340027], "name" : "NORMAL"}, {"bufferView" : 1, "byteOffset" : 24, "componentType" : 5126, "count" : 48, "type" : "VEC2", "max" : [0.875, 1], "min" : [0, 0], "name" : "TEXCOORD_0"}], "asset" : {"generator" : "Aspose.3D 21.6", "version" : "2.0"}, "buffers" : [{"uri" : "data:application/octet-stream;base64,", "byteLength" : 2252}], "bufferViews" : [{"buffer" : 0, "byteOffset" : 0, "byteLength" : 132, "target" : 34963}, {"buffer" : 0, "byteOffset" : 136, "byteLength" : 2112, "byteStride" : 32, "target" : 34962}], "meshes" : [{"primitives" : [{"attributes" : {"POSITION" : 1, "NORMAL" : 2, "TEXCOORD_0" : 3}, "indices" : 0, "mode" : 4}]}], "nodes" : [{"matrix" : [68.47222900390625, 0, 0, 0, 0, 68.47222900390625, 0, 0, 0, 0, 68.47222900390625, 0, 0, 0, 0, 1], "mesh" : 0, "name" : "Cube.001"}], "scene" : 0, "scenes" : [{"nodes" : [0]}]}