# Vectary OBJ Export units=mm
mtllib Culture Shard.mtl
o 000_Buffer_Layer
g Buffer_Layer
usemtl Buffer Layer material_754c0958-1799-4c87-8a5d-127dff5608da
v -34.740 60.413 -3.320
v -23.027 20.943 15.440
v -33.488 59.048 45.673
v -25.990 79.948 6.902
v 15.091 40.737 -30.074
v 8.165 91.272 14.015
v -1.433 6.188 -2.880
v 14.610 35.434 61.325
v 33.078 39.643 14.205
v 33.277 60.960 14.495
v -8.826 77.570 56.362
vn -0.96070 -0.27708 0.01683
vn -0.96070 -0.27708 0.01683
vn -0.96070 -0.27708 0.01683
vn -0.91870 0.39345 0.03444
vn -0.91870 0.39345 0.03444
vn -0.91870 0.39345 0.03444
vn -0.12242 0.61000 -0.78289
vn -0.12242 0.61000 -0.78289
vn -0.12242 0.61000 -0.78289
vn -0.12242 0.61000 -0.78289
vn -0.61812 -0.38523 -0.68522
vn -0.61812 -0.38523 -0.68522
vn -0.61812 -0.38523 -0.68522
vn -0.61812 -0.38523 -0.68522
vn -0.38632 -0.74000 0.55059
vn -0.38632 -0.74000 0.55059
vn -0.21261 -0.86810 0.44856
vn 0.70504 -0.70819 -0.03737
vn 0.63631 -0.74955 0.18244
vn 0.70504 -0.70819 -0.03737
vn 0.70504 -0.70819 -0.03737
vn 0.70504 -0.70819 -0.03737
vn 0.73640 -0.59930 -0.31394
vn 0.78508 0.37703 -0.49142
vn 0.78508 0.37703 -0.49142
vn 0.78508 0.37703 -0.49142
vn 0.78508 0.37703 -0.49142
vn 0.93137 -0.01364 0.36382
vn 0.77274 0.37475 0.51229
vn 0.76610 0.41688 0.48919
vn 0.70008 0.50691 0.50292
vn 0.76610 0.41688 0.48919
vn 0.77274 0.37475 0.51229
vn -0.38632 -0.74000 0.55059
vn -0.38632 -0.74000 0.55059
vn -0.50068 -0.61820 0.60593
vn -0.58433 0.35765 0.72845
vn -0.58433 0.35765 0.72845
vn -0.58433 0.35765 0.72845
vn -0.58433 0.35765 0.72845
vn -0.34089 0.92590 0.16282
vn -0.34089 0.92590 0.16282
vn -0.34089 0.92590 0.16282
vn 0.76610 0.41688 0.48919
vn 0.70008 0.50691 0.50292
vn 0.75406 0.47307 0.45563
f 1//8 4//9 6//10 5//7 
f 1//12 5//13 7//14 2//11 
f 10//25 9//26 5//27 6//24 
f 11//38 4//40 3//39 8//37 
f 1//1 2//2 3//3 
f 4//4 1//5 3//6 
f 8//15 2//16 7//17 
f 9//18 8//19 7//20 
f 9//21 7//22 5//23 
f 9//28 10//29 8//30 
f 6//31 8//32 10//33 
f 2//34 8//35 3//36 
f 4//41 11//42 6//43 
f 8//44 6//45 11//46 
