# Vectary OBJ Export units=mm
mtllib Identity Shard.mtl
o 000_Buffer_Layer
g Buffer_Layer
usemtl Buffer Layer material_36253d32-8d02-4444-ad83-c44fa3e68f7a
v 38.800 83.559 -39.937
v 47.457 61.173 -16.677
v 34.201 11.823 -27.732
v 19.778 59.915 -56.863
v -26.120 60.892 -27.098
v -16.776 23.646 -13.648
v 15.263 68.289 7.774
v -9.130 87.840 -17.364
v -8.736 39.332 -58.611
v 2.785 10.778 -26.559
v 11.794 93.173 -33.116
v 0.303 80.820 -55.988
v 14.035 77.287 -56.677
v 38.981 65.707 -5.238
v 30.401 28.583 11.331
v 30.407 28.653 11.383
vn 0.81672 -0.14729 -0.55793
vn 0.81672 -0.14729 -0.55793
vn 0.81672 -0.14729 -0.55793
vn 0.81672 -0.14729 -0.55793
vn -0.65220 0.12101 0.74832
vn -0.58401 0.03748 0.81088
vn -0.58401 0.03748 0.81088
vn -0.65220 0.12101 0.74832
vn 0.21156 -0.56501 -0.79750
vn 0.00941 -0.53470 -0.84499
vn 0.21156 -0.56501 -0.79750
vn 0.21156 -0.56501 -0.79750
vn -0.82117 -0.47702 -0.31325
vn -0.72327 -0.46457 -0.51094
vn -0.82117 -0.47702 -0.31325
vn -0.82117 -0.47702 -0.31325
vn -0.64707 0.70657 -0.28646
vn -0.64707 0.70657 -0.28646
vn -0.56364 0.69113 -0.45238
vn -0.64707 0.70657 -0.28646
vn -0.44345 -0.37914 -0.81216
vn 0.00941 -0.53470 -0.84499
vn -0.72327 -0.46457 -0.51094
vn -0.44345 -0.37914 -0.81216
vn 0.33859 0.59925 -0.72544
vn 0.30862 0.65296 -0.69167
vn 0.30862 0.65296 -0.69167
vn 0.33859 0.59925 -0.72544
vn 0.35195 0.69020 0.63226
vn 0.40886 0.72349 0.55623
vn 0.36712 0.81368 0.45071
vn 0.26140 0.83423 0.48552
vn 0.50768 0.76718 0.39204
vn 0.50768 0.76718 0.39204
vn 0.36712 0.81368 0.45071
vn 0.40886 0.72349 0.55623
vn 0.92493 -0.21342 0.31457
vn 0.92493 -0.21342 0.31457
vn 0.92493 -0.21342 0.31457
vn 0.92493 -0.21342 0.31457
vn 0.92493 -0.21342 0.31457
vn 0.48394 0.26095 0.83529
vn 0.48394 0.26095 0.83529
vn 0.35195 0.69020 0.63226
vn 0.40886 0.72349 0.55623
vn -0.58401 0.03748 0.81088
vn -0.58401 0.03748 0.81088
vn -0.45797 -0.09542 0.88383
vn -0.07482 -0.88042 0.46826
vn 0.04534 -0.91643 0.39761
vn -0.07482 -0.88042 0.46826
vn -0.19388 -0.82590 0.52943
vn -0.07482 -0.88042 0.46826
vn -0.07482 -0.88042 0.46826
vn -0.41358 0.62887 -0.65839
vn -0.56364 0.69113 -0.45238
vn -0.41358 0.62887 -0.65839
vn 0.18475 0.82291 -0.53730
vn 0.30862 0.65296 -0.69167
vn 0.30862 0.65296 -0.69167
f 2//2 3//3 4//4 1//1 
f 6//6 7//7 8//8 5//5 
f 4//10 3//11 10//12 9//9 
f 5//14 9//15 10//16 6//13 
f 12//18 5//19 8//20 11//17 
f 4//22 5//23 12//24 13//21 
f 13//26 11//27 1//28 4//25 
f 14//30 11//31 8//32 7//29 
f 1//34 11//35 14//36 2//33 
f 3//39 2//37 14//40 16//41 15//38 
f 16//43 14//45 7//44 15//42 
f 7//46 6//47 15//48 
f 10//49 3//50 15//51 
f 6//52 10//53 15//54 
f 9//55 5//56 4//57 
f 12//58 11//59 13//60 
