# Vectary OBJ Export units=mm
mtllib Other Shard.mtl
o 000_Buffer_Layer
g Buffer_Layer
usemtl Buffer Layer material_253bd1c5-ad87-4730-a02d-ffba2217490c
v 6.616 57.438 -40.541
v 25.716 63.138 -27.681
v 34.102 48.147 1.966
v -1.022 15.460 -21.511
v -31.149 34.520 -14.370
v -32.668 55.064 -18.220
v 15.567 35.639 21.529
v -5.267 23.518 21.728
v 9.377 87.101 18.494
v -1.207 91.755 -6.409
v -18.759 66.474 30.161
vn 0.69563 -0.46138 -0.55066
vn 0.69563 -0.46138 -0.55066
vn 0.69563 -0.46138 -0.55066
vn 0.69563 -0.46138 -0.55066
vn -0.43071 -0.27268 -0.86031
vn -0.43071 -0.27268 -0.86031
vn -0.43071 -0.27268 -0.86031
vn -0.43071 -0.27268 -0.86031
vn 0.57815 -0.80147 0.15292
vn 0.57815 -0.80147 0.15292
vn 0.57815 -0.80147 0.15292
vn 0.57815 -0.80147 0.15292
vn 0.19972 0.97501 0.09732
vn 0.19972 0.97501 0.09732
vn 0.19972 0.97501 0.09732
vn 0.19972 0.97501 0.09732
vn -0.42643 0.58714 -0.68806
vn -0.42643 0.58714 -0.68806
vn -0.42643 0.58714 -0.68806
vn 0.23345 0.71194 -0.66230
vn 0.23345 0.71194 -0.66230
vn 0.23345 0.71194 -0.66230
vn -0.87833 -0.23758 0.41485
vn -0.95975 -0.01842 0.28025
vn -0.87833 -0.23758 0.41485
vn -0.80903 -0.34722 0.47425
vn -0.87833 -0.23758 0.41485
vn -0.87833 -0.23758 0.41485
vn -0.51305 -0.85150 0.10834
vn -0.51305 -0.85150 0.10834
vn -0.51305 -0.85150 0.10834
vn 0.10274 -0.16045 0.98168
vn 0.10274 -0.16045 0.98168
vn 0.31953 -0.12327 0.93953
vn 0.49731 0.11056 0.86050
vn 0.49731 0.11056 0.86050
vn 0.53469 0.38457 0.75247
vn -0.76839 0.63604 0.07088
vn -0.76839 0.63604 0.07088
vn -0.76839 0.63604 0.07088
vn 0.84907 0.52761 0.02663
vn 0.84907 0.52761 0.02663
vn 0.84907 0.52761 0.02663
vn 0.40338 0.04039 0.91414
vn 0.49731 0.11056 0.86050
vn 0.44168 -0.09805 0.89180
f 2//2 3//3 4//4 1//1 
f 4//6 5//7 6//8 1//5 
f 8//10 4//11 3//12 7//9 
f 2//14 10//15 11//16 9//13 
f 1//17 6//18 10//19 
f 2//20 1//21 10//22 
f 11//23 6//24 5//25 
f 8//26 11//27 5//28 
f 8//29 5//30 4//31 
f 8//32 7//33 11//34 
f 3//35 11//36 7//37 
f 6//38 11//39 10//40 
f 2//41 9//42 3//43 
f 11//44 3//45 9//46 
